<?xml version="1.0" encoding="UTF-8" standalone="no"?>
<!-- Created with Inkscape (http://www.inkscape.org/) -->

<svg
   version="1.1"
   id="svg1"
   width="1254"
   height="1254"
   viewBox="0 0 1254 1254"
   sodipodi:docname="manageCallAIDarkBackground.svg"
   inkscape:version="1.4.2 (f4327f4, 2025-05-13)"
   xmlns:inkscape="http://www.inkscape.org/namespaces/inkscape"
   xmlns:sodipodi="http://sodipodi.sourceforge.net/DTD/sodipodi-0.dtd"
   xmlns="http://www.w3.org/2000/svg"
   xmlns:svg="http://www.w3.org/2000/svg">
  <defs
     id="defs1" />
  <sodipodi:namedview
     id="namedview1"
     pagecolor="#ffffff"
     bordercolor="#000000"
     borderopacity="0.25"
     inkscape:showpageshadow="2"
     inkscape:pageopacity="0.0"
     inkscape:pagecheckerboard="0"
     inkscape:deskcolor="#d1d1d1"
     inkscape:zoom="0.43588002"
     inkscape:cx="402.63374"
     inkscape:cy="571.25812"
     inkscape:window-width="1920"
     inkscape:window-height="991"
     inkscape:window-x="-9"
     inkscape:window-y="-9"
     inkscape:window-maximized="1"
     inkscape:current-layer="g1" />
  <g
     inkscape:groupmode="layer"
     inkscape:label="Image"
     id="g1">
    <path
       style="fill:#00d1d1;stroke-width:1.67613;fill-opacity:1;stroke:#00d1d1;stroke-opacity:1"
       d="m 613.71845,1255.9763 c -18.62413,-5.2424 -27.34986,-9.3578 -39.47879,-18.6202 -21.07745,-16.0957 -30.38108,-32.5209 -30.34063,-53.5652 0.0378,-19.7399 8.06569,-36.3299 24.40526,-50.4357 10.13832,-8.7523 28.10243,-18.2288 39.43391,-20.8025 l 7.36693,-1.6733 v -21.0662 c 0,-20.0019 -0.19914,-21.1058 -3.94163,-21.8478 -2.16792,-0.4298 -10.13166,-3.0301 -17.69722,-5.7786 -20.36435,-7.3983 -38.60238,-21.9608 -48.60689,-38.8114 l -7.60504,-12.809 -127.11511,0.4044 c -120.19438,0.3825 -127.51407,0.5548 -134.44295,3.1638 -4.03027,1.5176 -9.66119,5.0761 -12.51317,7.9078 -5.10009,5.0637 -5.19529,5.5616 -5.78813,30.2726 l -0.60278,25.1241 9.06304,2.3409 c 13.36414,3.4519 26.26562,10.2488 38.5568,20.3129 58.17282,47.6321 17.14625,124.8519 -68.55304,129.0297 -29.38887,1.4327 -57.3446,-6.4857 -77.79342,-22.0347 -49.97077,-37.9975 -35.82589,-101.7426 27.62894,-124.5125 l 15.40806,-5.5288 0.0524,-25.0202 c 0.0432,-20.6686 0.7099,-26.6333 3.8334,-34.295 8.96932,-22.0008 30.84725,-39.1082 59.30927,-46.37667 11.54845,-2.9491 15.35999,-3.0305 141.91393,-3.0305 h 130.04676 l 2.12489,-4.01322 c 13.64266,-25.76668 30.30377,-40.94092 55.40512,-50.46035 7.77353,-2.94816 15.74993,-5.36023 17.72527,-5.36023 3.37828,0 3.59156,-1.63302 3.59156,-27.49532 V 853.49969 L 591.52253,844.3457 C 488.98548,804.54449 398.48224,752.79513 296.5925,675.70588 131.00476,550.42306 28.756219,416.37268 3.8482436,291.91086 -0.53742511,269.99628 -0.6454235,230.7377 3.6294502,212.37574 12.122857,175.89392 29.479494,144.874 55.870768,119.00977 60.393865,114.57702 76.53603,101.38435 91.742289,89.69274 119.61797,68.25999 128.29416,63.452477 153.0794,55.705544 c 11.30071,-3.532174 34.40991,-6.663142 49.65268,-6.7272 28.08232,-0.118064 64.12392,9.662136 86.06738,23.355079 5.29406,3.303549 27.38465,20.684647 49.09023,38.624697 21.70559,17.94005 40.16234,32.66538 41.01503,32.72297 0.85265,0.0576 10.65221,-4.45226 21.77679,-10.0219 45.19142,-22.62568 100.69377,-40.06681 150.89509,-47.41743 8.99988,-1.31779 18.3126,-2.71293 20.69492,-3.10033 3.47325,-0.56479 4.33148,-1.69985 4.33148,-5.7287 0,-8.531602 8.67515,-26.279407 18.09691,-37.022994 13.67046,-15.588354 31.90658,-25.957924 56.98229,-32.401783 17.973,-4.61864 46.23832,-4.696597 63.76978,-0.175905 15.345,3.956905 32.67067,11.621878 42.83722,18.951521 14.86719,10.718527 31.95298,34.831336 32.03021,45.203519 0.0424,5.647612 1.85033,7.052642 10.55861,8.204002 4.23517,0.55998 17.07845,3.00525 28.54055,5.43396 167.44795,35.48065 299.75523,141.34789 335.34323,268.32862 2.8118,10.0331 5.3794,18.93846 5.7055,19.7897 0.3262,0.85122 4.3651,2.39092 8.9752,3.42154 30.9581,6.92099 60.9569,31.74133 69.9309,57.85955 3.8645,11.24715 3.7855,31.5356 -0.162,41.61541 -11.6826,29.83246 -43.4515,52.10748 -84.0069,58.9024 -3.1053,0.52028 -5.294,1.86081 -5.294,3.24237 0,1.29544 -4.0515,11.58473 -9.0031,22.86515 -11.0948,25.2748 -31.9915,57.56534 -51.6406,79.79775 l -14.833,16.78269 11.3974,8.02645 c 14.1942,9.99619 21.6019,17.2592 29.0354,28.46846 10.2601,15.47209 15.7455,32.10523 15.7782,47.84465 0.035,17.14186 -10.6867,42.42885 -25.218,59.47212 -8.9776,10.52951 -57.0365,46.53117 -78.26,58.62558 -30.4525,17.3537 -76.61153,31.80752 -117.89477,36.91663 -23.94971,2.96393 -72.43942,3.35048 -101.06816,0.80548 -32.27162,-2.86873 -84.22336,-11.47995 -115.34656,-19.11911 -16.23228,-3.98428 -30.05576,-7.24416 -30.7187,-7.24416 -0.66295,0 -1.20536,7.90125 -1.20536,17.55821 0,15.43747 0.40689,17.65684 3.36895,18.37612 1.85293,0.44987 9.43304,3.02548 16.84467,5.72347 24.34749,8.86337 44.14947,25.36832 53.8093,44.85037 l 4.50214,9.08011 133.51585,0.72962 133.51584,0.72972 14.7961,5.35615 c 23.9223,8.6599 39.0525,21.2562 48.0484,40.0018 3.5189,7.3326 4.2779,12.733 5.0219,35.7289 l 0.8766,27.0903 13.1626,4.6488 c 23.8322,8.4172 43.7201,25.2813 53.2257,45.133 19.9704,41.707 -12.8897,88.6078 -69.8131,99.6443 -54.3767,10.5425 -107.69737,-11.6839 -123.84042,-51.6225 -5.45744,-13.502 -5.53509,-33.5379 -0.17959,-46.3921 8.45951,-20.3045 32.33288,-39.7634 58.23611,-47.4673 l 13.2917,-3.9531 -0.6377,-24.2788 c -0.616,-23.4575 -0.8108,-24.477 -5.7598,-30.1414 -10.4131,-11.9184 -3.6933,-11.376 -146.47752,-11.8221 l -126.57335,-0.3953 -7.3572,12.0702 c -12.08667,19.8292 -35.90589,36.8785 -60.80102,43.5199 l -9.81359,2.6181 -0.53091,21.032 -0.53092,21.0322 7.62212,1.7311 c 25.47303,5.7854 50.17179,25.0802 60.05126,46.9123 5.54891,12.2621 6.07733,33.2966 1.14533,45.5879 -8.19899,20.4332 -27.19864,37.0927 -53.31859,46.7514 -16.03609,5.9301 -16.82548,6.0602 -39.46469,6.5083 -19.1437,0.3787 -24.82295,-0.027 -33.15097,-2.3717 z m 52.66087,-37.8264 c 16.80747,-6.5063 25.96677,-17.1477 27.26297,-31.6746 1.07577,-12.056 -2.0307,-19.4974 -11.56808,-27.711 -24.30291,-20.9299 -65.8265,-17.5265 -83.33959,6.8309 -14.59859,20.304 -1.1847,46.0751 28.5294,54.8114 8.93795,2.6278 29.57195,1.4374 39.1153,-2.2567 z m -419.03783,-28.7145 c 11.7405,-3.1401 21.58988,-9.6355 28.08019,-18.5176 4.87004,-6.665 5.67675,-9.3244 5.67675,-18.7143 0,-9.4041 -0.80401,-12.0456 -5.7103,-18.7609 -10.6766,-14.613 -27.95053,-21.6288 -49.95651,-20.2897 -29.42343,1.7904 -48.71816,18.9035 -47.0188,41.7021 0.86598,11.6178 7.24166,21.0298 19.18949,28.3283 13.39711,8.1838 33.20699,10.6739 49.73918,6.2521 z m 832.67051,-2.361 c 9.9678,-3.7738 16.2809,-8.7629 22.6741,-17.9182 5.9209,-8.4795 5.9209,-25.4257 0,-33.9053 -6.4038,-9.1706 -12.6926,-14.1314 -22.9487,-18.1024 -7.6832,-2.9748 -12.0819,-3.6109 -24.7453,-3.5784 -18.5641,0.048 -27.3544,3.0116 -39.2073,13.2194 -9.0942,7.832 -11.7899,13.8153 -11.7784,26.1438 0.015,16.3517 14.4653,31.6198 34.5634,36.5195 12.0851,2.9464 30.1103,1.9118 41.4422,-2.3784 z M 663.86711,1027.2873 c 11.35286,-2.9325 25.16353,-12.9541 30.46564,-22.1073 5.54327,-9.5695 5.70369,-25.0069 0.35347,-34.01118 -5.50566,-9.26581 -14.95949,-16.94844 -26.46732,-21.5084 -13.55142,-5.36963 -34.34723,-5.57153 -48.02819,-0.46607 -19.56019,7.29953 -30.17913,19.41276 -31.61385,36.06275 -0.78023,9.0545 -0.21509,11.5112 4.46775,19.4214 6.16017,10.4057 18.06345,19.2393 30.38514,22.5492 10.76793,2.8923 29.36439,2.9198 40.43736,0.06 z M 919.69396,850.03322 c 29.60152,-4.54502 56.79107,-13.47294 80.99004,-26.59362 5.0711,-2.74963 21.305,-13.67833 36.0753,-24.28605 29.8396,-21.43016 38.4001,-30.79981 42.3769,-46.38225 2.9846,-11.69371 1.1312,-22.55922 -5.722,-33.5445 -6.1793,-9.90488 -5.8897,-9.6696 -61.737,-50.17151 -101.79848,-73.82718 -96.09406,-70.67882 -128.06006,-70.67882 -17.97783,0 -20.18019,0.33165 -32.34132,4.87009 -11.73154,4.37816 -16.44695,7.69932 -46.67978,32.87704 -35.50858,29.57143 -44.62751,35.27878 -64.53765,40.3922 -17.41118,4.47161 -47.21732,3.56999 -64.89892,-1.96322 -36.65225,-11.46979 -108.0435,-50.5606 -169.68731,-92.9135 -87.73517,-60.27921 -189.28952,-152.56546 -201.73002,-183.31966 -8.10789,-20.04353 -7.32592,-32.67113 3.06442,-49.4872 4.41783,-7.14994 11.04309,-12.92518 36.00154,-31.38257 44.02034,-32.55409 43.30387,-31.9451 49.79158,-42.32143 5.33532,-8.53327 5.92947,-10.87803 5.91677,-23.34975 -0.0194,-19.17142 -5.51199,-27.87147 -30.05988,-47.6146 -9.92952,-7.98604 -31.48131,-25.64501 -47.89283,-39.24218 -70.80802,-58.66532 -69.76039,-57.89121 -86.48244,-63.90227 -22.98298,-8.26163 -52.10753,-6.82265 -73.80796,3.64672 -9.91407,4.78307 -44.7246,31.72613 -58.56883,45.33182 -37.090621,36.45151 -49.726434,91.55516 -34.268667,149.44301 16.614974,62.22163 49.769507,122.36869 102.436897,185.83509 82.40602,99.30274 214.47718,202.73813 345.12683,270.29605 105.41434,54.50902 214.20669,88.37816 308.01721,95.89182 11.11743,0.89055 23.24566,1.87462 26.95149,2.18687 13.59036,1.14553 51.52225,-0.82263 69.72569,-3.61758 z M 723.52704,632.1456 c 3.89267,-1.23294 18.81456,-12.43079 39.38019,-29.55204 42.41201,-35.30865 58.96236,-44.07005 93.23642,-49.35729 37.53531,-5.79032 77.05526,0.71675 106.80668,17.58602 5.494,3.11506 25.16655,16.71925 43.71667,30.23143 18.5503,13.51222 34.4641,24.22277 35.3638,23.80123 3.781,-1.77149 26.1298,-30.75246 36.7405,-47.64356 10.2389,-16.29938 21.4609,-39.44356 21.4609,-44.26084 0,-0.98619 -6.4543,-4.99389 -14.3432,-8.90596 -22.4431,-11.12978 -39.6609,-29.17382 -46.3137,-48.53646 -4.4778,-13.03242 -3.7435,-31.82066 1.7572,-44.95164 4.992,-11.91663 16.4712,-26.51476 26.6,-33.82728 9.726,-7.02157 28.1021,-16.2373 34.5018,-17.30285 3.1671,-0.52734 6.2624,-1.95431 6.8781,-3.17104 1.3796,-2.7252 -7.5891,-30.36026 -15.296,-47.13078 -6.6946,-14.56756 -25.1583,-44.40282 -35.4745,-57.32238 -52.5301,-65.78663 -138.80297,-116.86314 -234.56391,-138.86981 -12.2249,-2.80939 -26.32186,-5.50673 -31.32645,-5.99412 l -9.0995,-0.88611 -5.65408,7.77233 c -8.97964,12.34384 -24.78468,23.27883 -43.65287,30.20205 -9.03536,3.31528 -17.88066,6.0278 -19.65623,6.0278 -2.98006,0 -3.22834,5.89241 -3.22834,76.61641 0,66.47071 0.37513,76.6164 2.83277,76.6164 5.65151,0 24.42273,7.30351 35.7434,13.90708 51.45,30.01179 56.40847,87.76375 10.5218,122.54893 -42.47382,32.19798 -110.19437,32.26036 -152.14974,0.14025 -22.2663,-17.04668 -31.70575,-34.56192 -31.70575,-58.83113 0,-7.72504 1.26215,-16.24837 3.10235,-20.95007 10.00031,-25.55078 35.21454,-46.56743 65.72023,-54.77943 l 10.10682,-2.72071 v -75.51637 -75.5164 l -5.29405,-0.92565 c -2.91173,-0.50913 -11.60114,-3.1828 -19.30983,-5.94152 -16.93378,-6.0601 -32.88137,-17.55071 -39.26482,-28.29116 l -4.47262,-7.52538 -11.55063,0.82434 c -34.4772,2.46054 -99.59622,21.56539 -139.19026,40.83616 l -15.48097,7.53473 9.33324,9.37565 c 33.33351,33.48496 38.07063,73.6002 13.28267,112.48091 -7.46235,11.70491 -10.06897,14.01059 -46.21381,40.87864 l -38.30545,28.47409 v 6.52178 c 0,7.73116 5.82821,15.54582 30.48429,40.87431 84.87579,87.19045 222.43629,183.23561 305.44693,213.26399 12.83934,4.64451 19.24229,5.13726 28.52995,2.19545 z M 1164.2517,494.04065 c 12.4673,-3.53609 25.519,-12.70113 30.9955,-21.76537 6.1689,-10.21022 5.6703,-26.21289 -1.1235,-36.06778 -10.9067,-15.821 -32.784,-25.1727 -54.8495,-23.4463 -35.4214,2.77135 -59.177,30.29445 -47.6301,55.1839 10.8401,23.36575 42.3297,34.68327 72.6076,26.09555 z M 708.04825,439.6655 c 5.51493,-1.76502 12.65265,-5.85507 17.81724,-10.20955 20.7142,-17.46528 18.15265,-43.15335 -5.90389,-59.20573 -23.90276,-15.94978 -60.62591,-13.09568 -80.06177,6.22236 -8.19871,8.14902 -11.31893,15.14255 -11.31893,25.36969 0,19.63339 19.16031,37.15414 44.90582,41.0632 10.51522,1.59657 23.15021,0.4121 34.56153,-3.23997 z m 1.00892,-314.93846 c 18.21325,-6.89937 29.10104,-19.01358 30.68548,-34.14191 1.11833,-10.6786 -1.382,-18.295984 -8.99104,-27.391374 -22.64662,-27.070568 -76.46599,-24.865523 -97.03448,3.975662 -3.43327,4.814181 -4.16397,8.267729 -4.16835,19.701372 -0.004,12.39728 0.53655,14.55864 5.11697,20.43103 11.34084,14.53969 27.55126,21.7732 48.95451,21.84477 11.44632,0.0383 15.55217,-0.6751 25.43691,-4.41955 z"
       id="path1" />
  </g>
</svg>
